{"title":"Captain.Phillips.2013.SWESUB.WEBRip.x264-Stiffy","uid":9429111,"size":2167822823,"categoryP":"video","categoryS":"movies","magnet":"?xt=urn:btih:9627cfce4b5a617d84c2a80524acbcf66f94073d&amp;dn=Captain.Phillips.2013.SWESUB.WEBRip.x264-Stiffy&amp;tr=udp%3A%2F%2Ftracker.openbittorrent.com%3A80&amp;tr=udp%3A%2F%2Fopen.demonii.com%3A1337&amp;tr=udp%3A%2F%2Ftracker.coppersurfer.tk%3A6969&amp;tr=udp%3A%2F%2Fexodus.desync.com%3A6969","seeders":7,"leechers":0,"uploader":"Mr.Stifmeister","files":-1,"time":1388759781,"description":"General\n\nComplete name : Captain.Phillips.2013.SWESUB.WEBRip.x264-Stiffy.mkv\nFormat : Matroska\nFormat version : Version 4 / Version 2\nFile size : 2.02 GiB\nDuration : 2h 13mn\nOverall bit rate : 2 162 Kbps\nEncoded date : UTC 2014-01-03 13:12:36\nWriting application : mkvmerge v6.4.1 ('Omega Point') built on Sep 16 2013 21:37:02\nWriting library : libebml v1.3.0 + libmatroska v1.4.1\n\nVideo\nFormat : AVC\nFormat/Info : Advanced Video Codec\nFormat profile : &lt;a class=&quot;__cf_email__&quot; href=&quot;/cdn-cgi/l/email-protection&quot; data-cfemail=&quot;fcb4959b94bcb0cfd2cc&quot;&gt;[email&amp;#160;protected]&lt;/a&gt;&lt;script cf-hash='f9e31' type=&quot;text/javascript&quot;&gt;\n/* &lt;![CDATA[ */!function(){try{var t=&quot;currentScript&quot;in document?document.currentScript:function(){for(var t=document.getElementsByTagName(&quot;script&quot;),e=t.length;e--;)if(t[e].getAttribute(&quot;cf-hash&quot;))return t[e]}();if(t&amp;&amp;t.previousSibling){var e,r,n,i,c=t.previousSibling,a=c.getAttribute(&quot;data-cfemail&quot;);if(a){for(e=&quot;&quot;,r=parseInt(a.substr(0,2),16),n=2;a.length-n;n+=2)i=parseInt(a.substr(n,2),16)^r,e+=String.fromCharCode(i);e=document.createTextNode(e),c.parentNode.replaceChild(e,c)}}}catch(u){}}();/* ]]&gt; */&lt;/script&gt;\nFormat settings, CABAC : Yes\nFormat settings, ReFrames : 4 frames\nCodec ID : V_MPEG4/ISO/AVC\nDuration : 2h 13mn\nBit rate : 1 800 Kbps\nWidth : 720 pixels\nHeight : 384 pixels\nDisplay aspect ratio : 1.875\nFrame rate : 30.000 fps\nColor space : YUV\nChroma subsampling : 4:2:0\nBit depth : 8 bits\nScan type : Progressive\nBits/(Pixel*Frame) : 0.217\nStream size : 1.62 GiB (80%)\nWriting library : x264 core 123 r2189 35cf912\nEncoding settings : cabac=1 / ref=3 / deblock=1:0:0 / analyse=0x3:0x133 / me=hex / subme=7 / psy=1 / psy_rd=1.00:0.00 / mixed_ref=1 / me_range=16 / chroma_me=1 / trellis=1 / 8x8dct=1 / cqm=0 / deadzone=21,11 / fast_pskip=1 / chroma_qp_offset=-2 / threads=6 / sliced_threads=0 / nr=0 / decimate=1 / interlaced=0 / bluray_compat=0 / constrained_intra=0 / bframes=3 / b_pyramid=2 / b_adapt=1 / b_bias=0 / direct=1 / weightb=1 / open_gop=0 / weightp=2 / keyint=250 / keyint_min=25 / scenecut=40 / intra_refresh=0 / rc_lookahead=40 / rc=abr / mbtree=1 / bitrate=1800 / ratetol=1.0 / qcomp=0.60 / qpmin=10 / qpmax=51 / qpstep=4 / ip_ratio=1.40 / aq=1:1.00\nDefault : Yes\nForced : No\n\nAudio\nFormat : AC-3\nFormat/Info : Audio Coding 3\nMode extension : CM (complete main)\nCodec ID : A_AC3\nDuration : 2h 13mn\nBit rate mode : Constant\nBit rate : 384 Kbps\nChannel(s) : 2 channels\nChannel positions : Front: L R\nSampling rate : 48.0 KHz\nBit depth : 16 bits\nCompression mode : Lossy\nDelay relative to video : 7ms\nStream size : 367 MiB (18%)\nLanguage : English\nDefault : Yes\nForced : No\n\nText\nFormat : UTF-8\nCodec ID : S_TEXT/UTF8\nCodec ID/Info : UTF-8 Plain Text\nLanguage : Swedish\nDefault : Yes\n\n\nNOTES: The hardcoded Korean subtitle is blurred, see screens.\nSwedish subtitle is retail.\n\n &lt;a href=&quot;\nhttp://i.imgur.com/OEp6Kpe.png&quot; rel=&quot;nofollow&quot; target=&quot;_NEW&quot;&gt;\nhttp://i.imgur.com/OEp6Kpe.png&lt;/a&gt; &lt;a href=&quot;\nhttp://i.imgur.com/GQvkZi1.png&quot; rel=&quot;nofollow&quot; target=&quot;_NEW&quot;&gt;\nhttp://i.imgur.com/GQvkZi1.png&lt;/a&gt; &lt;a href=&quot;\nhttp://i.imgur.com/s3pDjQG.png&quot; rel=&quot;nofollow&quot; target=&quot;_NEW&quot;&gt;\nhttp://i.imgur.com/s3pDjQG.png&lt;/a&gt;\n","torrent":{"xt":"urn:btih:9627cfce4b5a617d84c2a80524acbcf66f94073d","amp;dn":"Captain.Phillips.2013.SWESUB.WEBRip.x264-Stiffy","amp;tr":["udp%3A%2F%2Ftracker.openbittorrent.com%3A80","udp%3A%2F%2Fopen.demonii.com%3A1337","udp%3A%2F%2Ftracker.coppersurfer.tk%3A6969","udp%3A%2F%2Fexodus.desync.com%3A6969"],"infoHash":"9627cfce4b5a617d84c2a80524acbcf66f94073d","infoHashBuffer":{"type":"Buffer","data":[150,39,207,206,75,90,97,125,132,194,168,5,36,172,188,246,111,148,7,61]},"announce":[],"urlList":[]}}